<svg width="960" height="336" viewBox="0 0 960 336" fill="none" xmlns="http://www.w3.org/2000/svg">
<rect width="960" height="336" fill="#1E1E1E"/>
<g clip-path="url(#clip0_0_1)">
<mask id="mask0_0_1" style="mask-type:luminance" maskUnits="userSpaceOnUse" x="2" y="0" width="960" height="336">
<path d="M2 0H962V336H2V0Z" fill="white"/>
</mask>
<g mask="url(#mask0_0_1)">
<path fill-rule="evenodd" clip-rule="evenodd" d="M2 0H962V336H2V0Z" fill="white"/>
<path d="M36.336 294.11V41.9066H135.695C154.768 41.9066 171.044 45.292 184.524 52.0628C198.013 58.8336 208.341 68.3961 215.508 80.7503C222.675 93.1045 226.258 107.631 226.258 124.328C226.258 141.037 222.643 155.427 215.414 167.5C208.195 179.573 197.732 188.797 184.024 195.172C170.315 201.547 153.753 204.735 134.336 204.735H67.8204V161.907H125.711C135.982 161.907 144.471 160.5 151.18 157.688C157.899 154.865 162.919 150.688 166.242 145.157C169.576 139.625 171.242 132.683 171.242 124.328C171.242 115.87 169.576 108.792 166.242 103.094C162.919 97.3961 157.872 93.0524 151.102 90.0628C144.331 87.0732 135.81 85.5784 125.539 85.5784H89.4923V294.11H36.336ZM176.32 294.11L114.867 179.344H172.43L235.227 294.11H176.32Z" fill="#C00000"/>
<path d="M295.986 294.11H238.939L325.955 41.9066H394.673L481.501 294.11H424.626L361.33 99.4534H359.298L295.986 294.11ZM292.611 194.922H427.501V236.563H292.611V194.922Z" fill="#38761D"/>
<path d="M614.887 297.5C591.189 297.5 570.398 292.282 552.512 281.844C534.627 271.407 520.689 256.511 510.7 237.157C500.71 217.802 495.715 194.865 495.715 168.344C495.715 141.032 500.934 117.703 511.372 98.3597C521.819 79.0055 535.955 64.193 553.778 53.9222C571.611 43.6514 591.642 38.516 613.872 38.516C628.09 38.516 641.345 40.5785 653.637 44.7035C665.939 48.818 676.887 54.6826 686.481 62.2972C696.075 69.9118 703.887 78.8858 709.918 89.2191C715.96 99.542 719.83 110.964 721.528 123.485H667.528C665.83 117.506 663.429 112.177 660.325 107.5C657.231 102.813 653.424 98.8649 648.903 95.6566C644.392 92.4378 639.288 89.9535 633.59 88.2035C627.892 86.4535 621.601 85.5785 614.715 85.5785C601.851 85.5785 590.538 88.766 580.778 95.141C571.017 101.516 563.398 110.855 557.918 123.157C552.45 135.448 549.715 150.344 549.715 167.844C549.715 185.334 552.424 200.23 557.84 212.532C563.257 224.823 570.845 234.214 580.606 240.703C590.366 247.193 601.908 250.438 615.231 250.438C627.304 250.438 637.595 248.266 646.106 243.922C654.627 239.578 661.174 233.459 665.747 225.563C670.319 217.657 672.606 208.344 672.606 197.625L683.434 199.328H618.606V159.203H724.059V191.032C724.059 213.146 719.377 232.162 710.012 248.078C700.648 263.985 687.757 276.198 671.34 284.719C654.924 293.24 636.106 297.5 614.887 297.5ZM873.012 213.703V104.875H925.325V294.11H875.044V259.75H873.012C868.731 270.698 861.679 279.584 851.856 286.407C842.044 293.23 830.028 296.589 815.809 296.485C803.163 296.485 792.018 293.636 782.372 287.938C772.726 282.24 765.221 274.089 759.856 263.485C754.502 252.87 751.825 240.172 751.825 225.391V104.875H804.122V216.25C804.122 227.302 807.111 236.073 813.091 242.563C819.08 249.052 827.038 252.24 836.966 252.125C843.278 252.125 849.143 250.688 854.559 247.813C859.976 244.938 864.403 240.625 867.841 234.875C871.288 229.115 873.012 222.058 873.012 213.703Z" fill="#156082"/>
</g>
</g>
<defs>
<clipPath id="clip0_0_1">
<rect width="960" height="336" rx="35" fill="white"/>
</clipPath>
</defs>
</svg>
